/* XPM */
static char * calcLogo_xpm[] = {
"100 100 8 1",
" 	c #000100",
".	c #30322F",
"+	c #636563",
"@	c #9D5C11",
"#	c #B76D16",
"$	c #A59D94",
"%	c #D0D1CE",
"&	c #EDEFEC",
"                 .++++++++++++++++++++++++++++++++++++++++++++++++++++++++++++++++.                 ",
"              .++++++++++++++++++++++++++++++++++++++++++++++++++++++++++++++++++++++.              ",
"            .++++++++++++++++++++++++++++++++++++++++++++++++++++++++++++++++++++++++++.            ",
"           ++++++++++++++++++++++++++++++++++++++++++++++++++++++++++++++++++++++++++++++           ",
"         .++++++++++++++++++++++++++++++++++++++++++++++++++++++++++++++++++++++++++++++++.         ",
"        ++++++++++++++++++++++++++++++++++++++++++++++++++++++++++++++++++++++++++++++++++++        ",
"       ++++++++++++++++++++++++++++++++++++++++++++++++++++++++++++++++++++++++++++++++++++++       ",
"      ++++++++++++++++++++++++++++++++++++++++++++++++++++++++++++++++++++++++++++++++++++++++      ",
"     ++++++++++++++++++++++++++++++++++++++++++++++++++++++++++++++++++++++++++++++++++++++++++     ",
"    .++++++++++++++++++++++++++++++++++++++++++++++++++++++++++++++++++++++++++++++++++++++++++.    ",
"   .++++++++++++++++++++++++++++++++++++++++++++++++++++++++++++++++++++++++++++++++++++++++++++    ",
"   +++++++++++++++++++++$%%&&&&&%%$+++++++++++++++++++++++++++++$%%&&&&&%%$++++++++++++++++++++++   ",
"  .+++++++++++++++++++%&&&&&&&&&&&&&%$++++++++++++++++++++++++%&&&&&&&&&&&&&%$+++++++++++++++++++.  ",
"  ++++++++++++++++++%&&&&&&&&&&&&&&&&&%$++++++++++++++++++++%&&&&&&&&&&&&&&&&&%+++++++++++++++++++  ",
" .++++++++++++++++$&&&&&&&&&&&&&&&&&&&&&%+++++++++++++++++$&&&&&&&&&&&&&&&&&&&&&$+++++++++++++++++. ",
" ++++++++++++++++$&&&&&&&&&&&&&&&&&&&&&&&%+++++++++++++++%&&&&&&&&&&&&&&&&&&&&&&&%+++++++++++++++++ ",
" +++++++++++++++$&&&&&&&&&&&&&&&&&&&&&&&&&&+++++++++++++%&&&&&&&&&&&&&&&&&&&&&&&&&%++++++++++++++++ ",
".++++++++++++++$&&&&&&&&&&&&&&&&&&&&&&&&&&&&+++++++++++%&&&&&&&&&&&&&&&&&&&&&&&&&&&%+++++++++++++++.",
"++++++++++++++$&&&&&&&&&&&&&&&&&&&&&&&&&&&&&%+++++++++$&&&&&&&&&&&&&&&&&&&&&&&&&&&&&%+++++++++++++++",
"++++++++++++++&&&&&&&&&&&&&&&&&&&&&&&&&&&&&&&$++++++++&&&&&&&&&&&&&&&&&&&&&&&&&&&&&&&$++++++++++++++",
"+++++++++++++%&&&&&&&&&&&&&&&&&&&&&&&&&&&&&&&&+++++++%&&&&&&&&&&&&&&&&&&&&&&&&&&&&&&&&++++++++++++++",
"+++++++++++++&&&&&&&&&&&&&&&&&&&&&&&&&&&&&&&&&%+++++$&&&&&&&&&&&&&&&&&&&&&&&&&&&&&&&&&$+++++++++++++",
"++++++++++++%&&&&&&&&&&&&&&&&&&&&&&&&&&&&&&&&&&+++++%&&&&&&&&&&&&&&&&&&&&&&&&&&&&&&&&&%+++++++++++++",
"++++++++++++&&&&&&&&&&&&&&&&&&&&&&&&&&&&&&&&&&&$++++&&&&&&&&&&&&&&&&&&&&&&&&&&&&&&&&&&&+++++++++++++",
"+++++++++++$&&&&&&&&&&&&&&&&&%%&&&&&&&&&&&&&&&&%+++$&&&&&&&&&&&&&&&&&&&&&&&&&&&&&&&&&&&$++++++++++++",
"+++++++++++$&&&&&&&&&&&&&&&&&.$&&&&&&&&&&&&&&&&&.++%&&&&&&&&&&&&&&&&&&&&&&&&&&&&&&&&&&&%++++++++++++",
"+++++++++++%&&&&&&&&&&&&&&&&&.$&&&&&&&&&&&&&&&&&.++&&&&&&&&&&&&&&&&&&&&&&&&&&&&&&&&&&&&&.+++++++++++",
"+++++++++++&&&&&&&&&&&&&&&&&&.$&&&&&&&&&&&&&&&&&+.+&&&&&&&&&&&&&&&&&&&&&&&&&&&&&&&&&&&&&..++++++++++",
"+++++++++++&&&&&&&&&&&&&&&&&&.$&&&&&&&&&&&&&&&&&$..&&&&&&&&&&&&&&&&&&&&&&&&&&&&&&&&&&%%&+..+++++++++",
"+++++++++++&&&&&&&&&&&&&%%%%%.+%%%%%&&&&&&&&&&&&$..&&&&&&&&&&&&&&$$$$$$$$$$&&&&&&&&%%%%&+...++++++++",
"+++++++++++&&&&&&&&&&&&&...........$&&&&&&&&&&&&$..&&&&&&&&&&&&&%..........&&&&&&%%%%%%&+...++++++++",
"+++++++++++&&&&&&&&&&&&&$$$$$.+$$$$%&&&&&&&&&&&&$..&&&&&&&&&&&&&&%%%%%%%%%%&&&&%%%%%%%%&.....+++++++",
"+++++++++++%&&&&&&&&&&&&&&&&&.$&&&&&&&&&&&&&&&&&+..&&&&&&&&&&&&&&&&&&&&&&&&&&&%%%%%%%%&&......++++++",
"+++++++++++%&&&&&&&&&&&&&&&&&.$&&&&&&&&&&&&&&&&&...%&&&&&&&&&&&&&&&&&&&&&&&&%%%%%%%%%%&&.......+++++",
"+++++++++++$&&&&&&&&&&&&&&&&&.$&&&&&&&&&&&&&&%&%...$&&&&&&&&&&&&&&&&&&&&&&%%%%%%%%%%%%&%........++++",
"++++++++++++&&&&&&&&&&&&&&&&&.$&&&&&&&&&&&&%%%&$...+&&&&&&&&&&&&&&&&&&&&%%%%%%%%%%%%%%&$........++++",
"++++++++++++%&&&&&&&&&&&&&&&&$%&&&&&&&&&&%%%%&&+....%&&&&&&&&&&&&&&&&&%%%%%%%%%%%%%%%&&..........+++",
"++++++++++++$&&&&&&&&&&&&&&&&&&&&&&&&&&%%%%%%&%.....$&&&&&&&&&&&&&&&%%%%%%%%%%%%%%%%%&$...........++",
"+++++++++++++%&&&&&&&&&&&&&&&&&&&&&&&&%%%%%%&&+......&&&&&&&&&&&&&&%%%%%%%%%%%%%%%%%&&.............+",
"++++++++++++++&&&&&&&&&&&&&&&&&&&&&&%%%%%%%%&%.......$&&&&&&&&&&&%%%%%%%%%%%%%%%%%%%&$..............",
"++++++++++++++$&&&&&&&&&&&&&&&&&&&%%%%%%%%%&&.........%&&&&&&&&%%%%%%%%%%%%%%%%%%%%&%...............",
"+++++++++++++++%&&&&&&&&&&&&&&&&%%%%%%%%%%&&+..........&&&&&&%%%%%%%%%%%%%%%%%%%%%&&+...............",
"++++++++++++++++%&&&&&&&&&&&&&%%%%%%%%%%%&&$...........+&&&%%%%%%%%%%%%%%%%%%%%%%&&+................",
"+++++++++++++++++%&&&&&&&&&&%%%%%%%%%%%%&&$.............+&&&%%%%%%%%%%%%%%%%%%%%&&+.................",
"++++++++++++++++++%&&&&&&&%%%%%%%%%%%%&&&+................%&&%%%%%%%%%%%%%%%%%&&%+..................",
"+++++++++++++++++++$&&&&%%%%%%%%%%%%&&&%...................$&&&%%%%%%%%%%%%%&&&$....................",
"+++++++++++++++++++++$&&&&&%%%%%%&&&&%+......................$&&&&%%%%%%%&&&&%+.....................",
"++++++++++++++++++++++.+%&&&&&&&&&%$...........................$%&&&&&&&&&%$........................",
"+++++++++++++++++++++++....+$$$$+..................................+$$$+............................",
"+++++++++++++++++++++++.............................................................................",
"+++++++++++++++++++++++++$%&&&&&%%$...............................+$$%%$$+..........................",
"++++++++++++++++++++++%&&&&&&&&&&&&&%+.........................$%&&&&&&&&&&%$.......................",
"++++++++++++++++++++%&&&&&&&&&&&&&&&&&%+.....................$&&%$########$%&&$.....................",
"++++++++++++++++++$&&&&&&&&&&&&&&&&&&&&&$..................+&&%##############$&&$...................",
"+++++++++++++++++$&&&&&&&&&&&&&&&&&&&&&&&%................$&%##################%&%..................",
"++++++++++++++++$&&&&&&&&&&&&&&&&&&&&&&&&&&..............%&$####################$&%.................",
"+++++++++++++++$&&&&&&&&&&&&&&&&&&&&&&&&&&&%............%&#######################@&%................",
"++++++++++++++$&&&&&&&&&&&&&&&&&&&&&&&&&&&&&%..........$&#########################@&%...............",
"++++++++++++++&&&&&&&&&&&&&&&&&&&&&&&&&&&&&&&$........+&$##########################$&$..............",
"+++++++++++++%&&&&&&&&&&&&&&&&&&&&&&&&&&&&&&&&........&%############################$&+.............",
"+++++++++++++&&&&&&&&&&&&&&&&&&&&&&&&&&&&&&%%&$......$&#############################@&%.............",
"++++++++++++%&&&&&&&&&&&&&&&&&&&&&&&&&&&&%%%%&&......&$###########################@@@$&+............",
"++++++++++++&&&&&&&&&&&&&&&&&&&&&&&&&&&%%%%%%%&$....$&##########################@@@@@@&$............",
"++++++++++++&&&&&&&&&&&&&&&&&&&&&&&&&%%%%%%%%%&%....%%########################@@@@@@@@$&............",
"+++++++++++$&&&&&&&&&&&&&&&&&&&&&&&&%%%%%%%%%%&&....&$######################@@@@@@@@@@$&+...........",
"+++++++++++%&&&&&&&&&&&&&$+&&&&&%+%%%%%%%%%%%%%&...+&######################@@@@@@@@@@@@&$...........",
"+++++++++++&&&&&&&&&&&&&&$.+%&&$.+%%%%%%%%%%%%%&+..$&############$$$$$$$$$$@@@@@@@@@@@@%%...........",
"+++++++++++&&&&&&&&&&&&&&&$.+%$.+%%%%%%%%%%%%%%&$..%&############%&&&&&&&&&@@@@@@@@@@@@%%...........",
"+++++++++++&&&&&&&&&&&&&&&%$.+.+%%%%%%%%%%%%%%%&$..%%############$$$$$$$$$$@@@@@@@@@@@@%%...........",
"+++++++++++&&&&&&&&&&&&&&&&%+..%%%%%%%%%%%%%%%%&$..%%##############@@@@@@@@@@@@@@@@@@@@%%...........",
"+++++++++++&&&&&&&&&&&&&&%%$...+%%%%%%%%%%%%%%%&$..%&###########@$$$$$$$$$$@@@@@@@@@@@@%%...........",
"+++++++++++%&&&&&&&&&&&%%%$.+%+.+%%%%%%%%%%%%%%&+..$&##########@@%&&&&&&&&&@@@@@@@@@@@@%%...........",
"+++++++++++%&&&&&&&&&&%%%$.+%%%+.+%%%%%%%%%%%%%&...+&########@@@@$$$$$$$$$$@@@@@@@@@@@@&$...........",
"+++++++++++$&&&&&&&&%%%%%++%%%%%+.%%%%%%%%%%%%&%....&$#####@@@@@@@@@@@@@@@@@@@@@@@@@@@@&+...........",
"++++++++++++&&&&&&%%%%%%%%%%%%%%%%%%%%%%%%%%%%&$....%%###@@@@@@@@@@@@@@@@@@@@@@@@@@@@@$&............",
"++++++++++++%&&&&%%%%%%%%%%%%%%%%%%%%%%%%%%%%%&+....$&#@@@@@@@@@@@@@@@@@@@@@@@@@@@@@@@%%............",
"++++++++++++$&&%%%%%%%%%%%%%%%%%%%%%%%%%%%%%%&%......&$@@@@@@@@@@@@@@@@@@@@@@@@@@@@@@$&+............",
"+++++++++++++%&%%%%%%%%%%%%%%%%%%%%%%%%%%%%%%&+......%&@@@@@@@@@@@@@@@@@@@@@@@@@@@@@@%%.............",
"++++++++++++++&&%%%%%%%%%%%%%%%%%%%%%%%%%%%%&%.......+&$@@@@@@@@@@@@@@@@@@@@@@@@@@@@$&+............+",
"++++++++++++++%&%%%%%%%%%%%%%%%%%%%%%%%%%%%&&.........$&$@@@@@@@@@@@@@@@@@@@@@@@@@@@&%..............",
"+++++++++++++++%&%%%%%%%%%%%%%%%%%%%%%%%%%%&+..........%&@@@@@@@@@@@@@@@@@@@@@@@@@@%%...............",
"++++++++++++++++&&%%%%%%%%%%%%%%%%%%%%%%%%&$............%&@@@@@@@@@@@@@@@@@@@@@@@@%&+...............",
".++++++++++++++++%&%%%%%%%%%%%%%%%%%%%%%&&$.............+&&@@@@@@@@@@@@@@@@@@@@@@%&+................",
" +++++++++++++++++%&&%%%%%%%%%%%%%%%%%%&&+................%&$@@@@@@@@@@@@@@@@@@$&%+................ ",
" ++++++++++++++++++$&&&%%%%%%%%%%%%%%&&%...................$&&$@@@@@@@@@@@@@@$%&%.................. ",
"  +++++++++++++++++++$&&&%%%%%%%%%&&&%+.....................+%&&$@@@@@@@@@@$%&%+................... ",
"  ++++++++++++++++++++.$%&&&&&&&&&%$+.........................+%&&&%%%%%%&&&%+...................+  ",
"   +++++++++++++++++++.....+$$$$+................................+$%%%%%%$+.......................  ",
"   ++++++++++++++++++++..........................................................................   ",
"    ++++++++++++++++++++........................................................................    ",
"    .++++++++++++++++++++.......................................................................    ",
"     .++++++++++++++++++++.....................................................................     ",
"      .+++++++++++++++++++....................................................................      ",
"       .+++++++++++++++++++..................................................................       ",
"        .+++++++++++++++++++................................................................        ",
"         .+++++++++++++++++++..............................................................         ",
"           +++++++++++++++++++...........................................................           ",
"            .+++++++++++++++++..........................................................            ",
"              .++++++++++++++++.......................................................              ",
"                 .++++++++++++++..............................................+....                 "};
