/* XPM */
static char * itbaLogo_xpm[] = {
"200 66 2 1",
" 	c #000401",
".	c #02578A",
"                                                                                                                                                                                                        ",
"                                                                                                                                                                                                        ",
"                                                                                                                                                                                                        ",
"         ...............   ......................................              ................................                                         ............                                    ",
"         ...............   .......................................             ...................................                                      ............                                    ",
"         ...............   ........................................             .....................................                                   .............                                   ",
"         ...............   .........................................             .....................................                                   ............                                   ",
"         ...............   ..........................................             ......................................                                 .............                                  ",
"         ...............   ...........................................            .......................................                                 ............                                  ",
"         ...............   ............................................            .......................................                                .............                                 ",
"          ..............   .............................................            ......................................                                .............                                 ",
"           .............   .............................................             ......................................                                ............                                 ",
"            ............   ..............................................            ......................................                                .............                                ",
"             ...........   ...............................................            ......................................                                ............                                ",
"               .........   ................................................            .....................................                                .............                               ",
"                ........                    ..............                             ......             ..................                      .          ............                               ",
"                 .......                    ..............                              .....               ................                     ..          .............                              ",
"                  ......                    ..............                               ....                ...............                     ...         .............                              ",
"                    ....                    ..............                                ...                 ..............                    .....         .............                             ",
"                     ...                    ..............                     .          ...                 ..............                    .....         .............                             ",
"                      ..                    ..............                    ..           ..                 ..............                    ......         ............                             ",
"                                            ..............                    ...                             ..............                   .......         .............                            ",
"                                            ..............                    ....                            ..............                   ........        .............                            ",
"                                            ..............                    .....                           .............                   ..........        .............                           ",
"                                            ..............                    ......                         ..............                   ..........        .............                           ",
"         ..                                 ..............                    .......                       ..............                    ...........        .............                          ",
"         ....                               ..............                    ........                    ................                   ............        .............                          ",
"         ......                             ..............                    .........         .........................                    .............        ............                          ",
"         .......                            ..............                    .........          .......................                    ..............        .............                         ",
"         .........                          ..............                    ..........          .....................                     .............         .............                         ",
"         ..........                         ..............                    ...........         ....................                     ..............          .............                        ",
"         ............                       ..............                    ............         .................                       ..............          .............                        ",
"         .............                      ..............                    .............         .................                      .............            .............                       ",
"         ..............                     ..............                    ..............         ..................                   ..............            .............                       ",
"         ...............                    ..............                    ...............        ....................                 .............             ..............                      ",
"         ...............                    ..............                    ................        ....................               ..............              .............                      ",
"         ...............                    ..............                    ................         ....................              ..............              .............                      ",
"         ...............                    ..............                    ..................       .....................             .............                .............                     ",
"         ...............                    ..............                    ..................        .....................           ..............                .............                     ",
"         ...............                     .............                    ...............              ..................           ........................       .............                    ",
"         ...............                      ............                    ...............                 ................         ..........................      .............                    ",
"         ...............                        ..........                    ...............                  ...............         ...........................     ..............                   ",
"         ...............                         .........                    ...............                   ..............        ............................      .............                   ",
"         ...............                          ........                    ...............                    ..............       .............................     .............                   ",
"         ...............                           .......                    ...............                    ..............       ..............................     .............                  ",
"         ...............                            ......                    ...............                    ..............      ...............................     .............                  ",
"         ...............                              ....                    ...............                    ..............      ................................    ..............                 ",
"         ...............                    ..         ...                    ...............                    ..............     .................................     .............                 ",
"         ...............                    ...         ..                    ...............                   ...............     ..................................    ..............                ",
"         ...............                    .....                             ...............                   ...............     ..................................     .............                ",
"         ...............                    ......                            ...............                    ..............    ....................................    ..............               ",
"         ...............                    ........                          ...............                     .............    ..............                           .............               ",
"         ...............                    ..........                        ...............................     ............    ...............                           .............               ",
"         ...............                    ...........                       ...............................      ...........    ..............                            ..............              ",
"         ...............                    .............                     .................................     .........    ...............                             .............              ",
"         ...............                    ..............                    .................................     .........    ..............                              ..............             ",
"         ...............                    ..............                    ..................................     .......     ..............                               .............             ",
"         ...............                    ..............                    ...................................     .....     ...............                               ..............            ",
"         ...............                    ..............                    ....................................     ...      ..............                                ..............            ",
"         ...............                    ..............                    .....................................    ..      ...............                                 .............            ",
"         ...............                    ..............                    ......................................           ..............                                  ..............           ",
"         ...............                    ..............                    ......................................           ..............                                   .............           ",
"         ...............                    ..............                    .....................................           ...............                                   ..............          ",
"         ...............                    ..............                    .................................               ..............                                     .............          ",
"                                                                                                                                                                                                        ",
"                                                                                                                                                                                                        "};
