/* XPM */
static char * shellLogo_xpm[] = {
"100 100 4 1",
" 	c #000000",
".	c #FFFFFF",
"+	c #4F4F4F",
"@	c #40FF00",
"                                                                                                    ",
"                                                                                                    ",
"                                                                                                    ",
"                                                                                                    ",
"                                                                                                    ",
"                                                                                                    ",
"                                                                                                    ",
"                                                                                                    ",
"                                                                                                    ",
"                                                                                                    ",
"                                                                                                    ",
"                                                 ++                                                 ",
"                                             ++++..+++                                              ",
"                                            ++........++                                            ",
"                                          ++...........++                                           ",
"                                        ++...............++                                         ",
"                                       ++..................++                                       ",
"                                     ++.....................++                                      ",
"                                   ++.........................++                                    ",
"                                 +++............................++                                  ",
"                                ++...............................++                                 ",
"                              ++...................................++                               ",
"                             ++......................................++                             ",
"                           ++.........................................++                            ",
"                         ++.............................................++                          ",
"                        +.................................................++                        ",
"                      ++....................................................+                       ",
"                    ++.......................................................++                     ",
"                   ++..........................................................+                    ",
"                  +.............................................................+                   ",
"                 +...............................................................+                  ",
"                 +...............................................................++                 ",
"                +..............................................................+..+                 ",
"                +............................................................++++++                 ",
"                +..........................................................++++++++                 ",
"                +........................................................++++++++++                 ",
"                +.......................................................+++++++++++                 ",
"                +.....................................................+++++++++++++                 ",
"                +....................................................++++++++++++++                 ",
"                +..................................................++++++++++++++++                 ",
"                +................................................++++++++++++++++++                 ",
"                +...............................................+++++++++++++++++++                 ",
"                +.............................................+++++++++++++++++++++                 ",
"                +............................................++++++++++++++++++++++                 ",
"                +..........................................++++++++++++++++++++++++                 ",
"                +........................................++++++++++++++++++++++++++                 ",
"                +.......................................+++++++++++++++++++++++++++                 ",
"                +.....................................+++++++++++++++++++++++++++++                 ",
"                +....................................++++++++++++++++++++++++++++++                 ",
"                +..................................++++++++++++++++++++++++++++++++                 ",
"                +.................................+++++++++++++++++++++++++++++++++                 ",
"                +.................................+++++++++++++++++++++++++++++++++                 ",
"                +................................++++++++++++++++++++++++++++++++++                 ",
"                +................................++++++++++++++++++++++++++++++++++                 ",
"                +................................++++++++++.+++++++++++++++++++++++                 ",
"                +................................+++++++++..+++++++++++++++++++++++                 ",
"                +................................+++++++++.....++++++++++++++++++++                 ",
"                +................................+++++++++....+++++++++++++++++++++                 ",
"                +................................++++++++.....+++++++++++++++++++++                 ",
"                +................................+++++++...++++++++++++++++++++++++                 ",
"                +................................+++++++..+++++++++++++++++++++++++                 ",
"                +................................++++++...+++++++++++++++++++++++++                 ",
"                +................................++++++...+++++++++++++++++++++++++                 ",
"                +................................++++++.......+++++++++++++++++++++                 ",
"                +................................++++++........++++++++++++++++++++                 ",
"                +................................+++++++.......++++++++++++++++++++                 ",
"                +................................+++++++++.....++++++++++++++++++++                 ",
"                +................................+++++++++++...++++++++++++++++++++                 ",
"                 +...............................++++++++++++..+++++++++@++++++++++                 ",
"                 +...............................+++++++++++...+++++++@@@+++++++++                  ",
"                  +..............................++++++++++...++++++@@@+++++++++++                  ",
"                   +.............................+++++++.....++++++@@@+++++++++++                   ",
"                    ++...........................++++++.....+++++++@++++++++++++                    ",
"                     +++.........................++++++.....++++++++++++++++++                      ",
"                       ++........................+++++++++..++++++++++++++++                        ",
"                         ++......................+++++++++..+++++++++++++++                         ",
"                          +++....................++++++++++++++++++++++++                           ",
"                            ++...................++++++++++++++++++++++                             ",
"                              ++.................+++++++++++++++++++++                              ",
"                               +++...............+++++++++++++++++++                                ",
"                                 ++..............+++++++++++++++++                                  ",
"                                   ++............++++++++++++++++                                   ",
"                                     ++..........++++++++++++++                                     ",
"                                      ++.........++++++++++++                                       ",
"                                        ++.......++++++++++                                         ",
"                                          ++.....+++++++++                                          ",
"                                           ++.....++++++                                            ",
"                                             +++..++++                                              ",
"                                               +++++                                                ",
"                                                                                                    ",
"                                                                                                    ",
"                                                                                                    ",
"                                                                                                    ",
"                                                                                                    ",
"                                                                                                    ",
"                                                                                                    ",
"                                                                                                    ",
"                                                                                                    ",
"                                                                                                    ",
"                                                                                                    "};
